# xmcd CD database file
#
# Track frame offsets:
#	150
#	12065
#	25240
#	38942
#	53164
#	67575
#	82577
#	95790
#	110060
#	122640
#	134747
#	146777
#	159230
#	171705
#	186205
#	199452
#	214390
#	228565
#	240665
#	258837
#
# Disc length: 3675 seconds
#
# Revision: 0
# Processed by: cddbd v1.4PL0 Copyright (c) Steve Scherf et al.
# Submitted via: CDex 1.51
#
DISCID=220e5914
DTITLE=Charlie Parker - Anthology [CD1)
DYEAR=1997
DGENRE=Jazz
TTITLE0=Swingmatism
TTITLE1=Hootie Blues
TTITLE2=The Jumpin' Blues
TTITLE3=Sepian Bounce
TTITLE4=Cherokee
TTITLE5=My Heart Tells Me
TTITLE6=Tiny's Tempo
TTITLE7=Redcross
TTITLE8=What's the Matter Now?
TTITLE9=Sorta Kinda
TTITLE10=Groovin' High
TTITLE11=All the Things You Are
TTITLE12=Dizzy Atmosphere
TTITLE13=Salt Peanuts
TTITLE14=Shaw 'Nuff
TTITLE15=Lover Man
TTITLE16=Hot House
TTITLE17=Mean To Me
TTITLE18=Hallelujah
TTITLE19=Get Happy
EXTD=YEAR: 1997
EXTT0=
EXTT1=
EXTT2=
EXTT3=
EXTT4=
EXTT5=
EXTT6=
EXTT7=
EXTT8=
EXTT9=
EXTT10=
EXTT11=
EXTT12=
EXTT13=
EXTT14=
EXTT15=
EXTT16=
EXTT17=
EXTT18=
EXTT19=
PLAYORDER=
